<svg width="272" height="272" viewBox="0 0 272 272" fill="none" xmlns="http://www.w3.org/2000/svg">
<rect width="272" height="272" rx="20" fill="#242C26"/>
<path fill-rule="evenodd" clip-rule="evenodd" d="M34 66.5549C38.2622 72.6214 41.4089 73.0038 47.7337 70.8486C52.4144 79.8671 55.7654 80.0326 62.5706 74.7474C71.7001 76.6086 76.1018 76.268 74.6871 66.1787C85.4145 63.2629 87.1697 59.9492 82.3147 50.8832C86.4438 46.3982 87.464 43.4802 85.1908 36.9999H216.222C228.802 36.9999 239 47.1978 239 59.7777V233.908C239 240.368 219.535 224.044 215.5 219L200.283 204.993C195.961 199.59 189.416 196.444 182.497 196.444H56.7778C44.1976 196.444 34 186.247 34 173.667V66.5549Z" fill="#14902A"/>
<path d="M47.7337 70.8486L49.065 70.1576L48.4708 69.0127L47.2499 69.4288L47.7337 70.8486ZM34 66.5549L35.2274 65.6926L32.5 61.8106V66.5549H34ZM62.5706 74.7474L62.8702 73.2777L62.1949 73.14L61.6505 73.5627L62.5706 74.7474ZM74.6871 66.1787L74.2936 64.7312L73.0181 65.078L73.2016 66.387L74.6871 66.1787ZM82.3147 50.8832L81.2112 49.8673L80.4891 50.6516L80.9924 51.5913L82.3147 50.8832ZM85.1908 36.9999V35.4999H83.0751L83.7754 37.4964L85.1908 36.9999ZM215.5 219L216.671 218.063L216.6 217.974L216.516 217.896L215.5 219ZM200.283 204.993L199.112 205.93L199.183 206.019L199.267 206.096L200.283 204.993ZM47.2499 69.4288C44.1223 70.4945 42.134 70.7937 40.4938 70.3393C38.8895 69.8949 37.2924 68.6319 35.2274 65.6926L32.7726 67.4172C34.9697 70.5445 37.0771 72.5059 39.6929 73.2305C42.2728 73.9451 45.0203 73.3579 48.2175 72.2684L47.2499 69.4288ZM61.6505 73.5627C59.9829 74.8579 58.6133 75.749 57.4395 76.2614C56.283 76.7663 55.4136 76.8614 54.6826 76.698C53.9467 76.5336 53.1332 76.0585 52.1857 75.0034C51.2297 73.939 50.2109 72.3653 49.065 70.1576L46.4023 71.5396C47.5969 73.8412 48.7522 75.6701 49.9536 77.0079C51.1636 78.3552 52.4908 79.2822 54.0284 79.6258C55.5708 79.9705 57.1078 79.6796 58.6397 79.0109C60.1545 78.3497 61.7557 77.2796 63.4907 75.9321L61.6505 73.5627ZM73.2016 66.387C73.5445 68.8326 73.5073 70.5231 73.2196 71.671C72.9482 72.7535 72.4737 73.2992 71.8709 73.6243C71.1884 73.9924 70.1471 74.1815 68.5788 74.1139C67.0286 74.0471 65.1378 73.7399 62.8702 73.2777L62.271 76.2172C64.5682 76.6855 66.6511 77.0337 68.4497 77.1112C70.2302 77.1879 71.9127 77.0103 73.295 76.2647C74.757 75.4762 75.6882 74.1613 76.1296 72.4005C76.5545 70.705 76.537 68.5695 76.1725 65.9704L73.2016 66.387ZM80.9924 51.5913C82.1809 53.8106 82.9059 55.5736 83.2131 57.003C83.515 58.4073 83.3937 59.3909 83.0049 60.1619C82.6061 60.953 81.8183 61.7343 80.3746 62.5137C78.9266 63.2955 76.9339 64.0136 74.2936 64.7312L75.0805 67.6262C77.804 66.886 80.0534 66.0964 81.7999 65.1535C83.5507 64.2082 84.9097 63.0477 85.6837 61.5126C86.4678 59.9575 86.5455 58.2305 86.1462 56.3726C85.7522 54.5397 84.8761 52.4888 83.6371 50.1751L80.9924 51.5913ZM83.7754 37.4964C84.8733 40.6262 85.0856 42.6553 84.6924 44.3509C84.2961 46.0597 83.2313 47.6729 81.2112 49.8673L83.4183 51.8992C85.5272 49.6085 87.037 47.5202 87.6148 45.0287C88.1957 42.524 87.7816 39.8539 86.6063 36.5034L83.7754 37.4964ZM216.222 35.4999H85.1908V38.4999H216.222V35.4999ZM240.5 59.7777C240.5 46.3694 229.63 35.4999 216.222 35.4999V38.4999C227.974 38.4999 237.5 48.0263 237.5 59.7777H240.5ZM240.5 233.908V59.7777H237.5V233.908H240.5ZM214.329 219.937C216.466 222.609 222.462 228.042 227.881 231.981C230.58 233.943 233.28 235.642 235.374 236.419C236.363 236.787 237.545 237.078 238.587 236.766C239.176 236.589 239.705 236.222 240.059 235.645C240.393 235.1 240.5 234.486 240.5 233.908H237.5C237.5 234.138 237.455 234.153 237.502 234.076C237.569 233.967 237.676 233.907 237.725 233.892C237.737 233.889 237.646 233.916 237.394 233.879C237.15 233.843 236.827 233.759 236.418 233.607C234.735 232.983 232.317 231.497 229.645 229.555C224.323 225.686 218.569 220.435 216.671 218.063L214.329 219.937ZM199.267 206.096L214.484 220.104L216.516 217.896L201.299 203.889L199.267 206.096ZM182.497 197.944C188.961 197.944 195.074 200.883 199.112 205.93L201.455 204.056C196.847 198.297 189.872 194.944 182.497 194.944V197.944ZM56.7778 197.944H182.497V194.944H56.7778V197.944ZM32.5 173.667C32.5 187.075 43.3692 197.944 56.7778 197.944V194.944C45.026 194.944 35.5 185.418 35.5 173.667H32.5ZM32.5 66.5549V173.667H35.5V66.5549H32.5Z" fill="white"/>
<path d="M83.72 114.4C83.72 116.667 82.92 118.627 81.32 120.28C79.72 121.907 77.3867 123.08 74.32 123.8C75.9733 124.253 77.2267 125 78.08 126.04C78.9333 127.053 79.36 128.227 79.36 129.56C79.36 131.667 78.6933 133.493 77.36 135.04C76.0533 136.587 74.1333 137.787 71.6 138.64C69.0667 139.467 66.0133 139.88 62.44 139.88C61.1067 139.88 60.04 139.84 59.24 139.76C59.2133 140.507 58.8933 141.067 58.28 141.44C57.6667 141.813 56.88 142 55.92 142C54.96 142 54.2933 141.787 53.92 141.36C53.5733 140.933 53.4267 140.307 53.48 139.48C53.72 135.747 54.1867 131.84 54.88 127.76C55.5733 123.653 56.4533 119.693 57.52 115.88C57.7067 115.213 58.08 114.747 58.64 114.48C59.2 114.213 59.9333 114.08 60.84 114.08C62.4667 114.08 63.28 114.533 63.28 115.44C63.28 115.813 63.2 116.24 63.04 116.72C62.3467 118.8 61.6533 121.627 60.96 125.2C60.2667 128.747 59.7733 132.133 59.48 135.36C60.76 135.467 61.8 135.52 62.6 135.52C66.3333 135.52 69.0667 134.987 70.8 133.92C72.56 132.827 73.44 131.44 73.44 129.76C73.44 128.587 72.9333 127.6 71.92 126.8C70.9333 126 69.2667 125.56 66.92 125.48C66.3867 125.453 66.0133 125.32 65.8 125.08C65.5867 124.84 65.48 124.453 65.48 123.92C65.48 123.147 65.64 122.52 65.96 122.04C66.28 121.56 66.8667 121.307 67.72 121.28C69.6133 121.227 71.32 120.947 72.84 120.44C74.3867 119.933 75.6 119.227 76.48 118.32C77.36 117.387 77.8 116.307 77.8 115.08C77.8 113.533 77.04 112.32 75.52 111.44C74 110.533 71.6667 110.08 68.52 110.08C65.6667 110.08 62.9067 110.453 60.24 111.2C57.5733 111.92 55.3067 112.84 53.44 113.96C52.5867 114.467 51.8667 114.72 51.28 114.72C50.8 114.72 50.4267 114.56 50.16 114.24C49.92 113.893 49.8 113.467 49.8 112.96C49.8 112.293 49.9333 111.72 50.2 111.24C50.4933 110.76 51.1733 110.213 52.24 109.6C54.48 108.32 57.1067 107.32 60.12 106.6C63.1333 105.88 66.2133 105.52 69.36 105.52C74.1867 105.52 77.7867 106.333 80.16 107.96C82.5333 109.587 83.72 111.733 83.72 114.4ZM88.4647 118.72C87.3447 118.72 86.5047 118.467 85.9447 117.96C85.3847 117.427 85.1047 116.693 85.1047 115.76C85.1047 114.827 85.4647 114.053 86.1847 113.44C86.9314 112.8 87.8514 112.48 88.9447 112.48C89.9314 112.48 90.7314 112.72 91.3447 113.2C91.958 113.68 92.2647 114.36 92.2647 115.24C92.2647 116.307 91.918 117.16 91.2247 117.8C90.5314 118.413 89.6114 118.72 88.4647 118.72ZM88.1447 140.2C86.4114 140.2 85.1447 139.587 84.3447 138.36C83.5714 137.133 83.1847 135.507 83.1847 133.48C83.1847 132.28 83.3314 130.747 83.6247 128.88C83.9447 126.987 84.3447 125.227 84.8247 123.6C85.0647 122.747 85.3847 122.16 85.7847 121.84C86.1847 121.52 86.8247 121.36 87.7047 121.36C89.0647 121.36 89.7447 121.813 89.7447 122.72C89.7447 123.387 89.4914 124.933 88.9847 127.36C88.3447 130.293 88.0247 132.28 88.0247 133.32C88.0247 134.12 88.1314 134.733 88.3447 135.16C88.558 135.587 88.918 135.8 89.4247 135.8C89.9047 135.8 90.5047 135.467 91.2247 134.8C91.9447 134.133 92.9047 133.08 94.1047 131.64C94.4247 131.267 94.7847 131.08 95.1847 131.08C95.5314 131.08 95.798 131.24 95.9847 131.56C96.198 131.88 96.3047 132.32 96.3047 132.88C96.3047 133.947 96.0514 134.773 95.5447 135.36C92.9047 138.587 90.438 140.2 88.1447 140.2ZM110.908 131.08C111.255 131.08 111.522 131.24 111.708 131.56C111.922 131.88 112.028 132.32 112.028 132.88C112.028 133.947 111.775 134.773 111.268 135.36C110.122 136.773 108.868 137.933 107.508 138.84C106.148 139.747 104.588 140.2 102.828 140.2C97.3884 140.2 94.6684 136.373 94.6684 128.72C94.6684 127.547 94.7084 126.36 94.7884 125.16H93.2284C92.4284 125.16 91.8818 125.013 91.5884 124.72C91.3218 124.427 91.1884 123.96 91.1884 123.32C91.1884 121.827 91.7884 121.08 92.9884 121.08H95.2684C95.7218 118.147 96.4151 115.467 97.3484 113.04C98.2818 110.613 99.4018 108.68 100.708 107.24C102.042 105.8 103.468 105.08 104.988 105.08C106.108 105.08 106.988 105.573 107.628 106.56C108.268 107.547 108.588 108.787 108.588 110.28C108.588 114.413 106.855 118.013 103.388 121.08H107.868C108.295 121.08 108.602 121.173 108.788 121.36C108.975 121.547 109.068 121.893 109.068 122.4C109.068 124.24 107.562 125.16 104.548 125.16H99.6684C99.6151 126.493 99.5884 127.533 99.5884 128.28C99.5884 131.053 99.9084 133 100.548 134.12C101.215 135.24 102.255 135.8 103.668 135.8C104.815 135.8 105.828 135.453 106.708 134.76C107.588 134.067 108.628 133.027 109.828 131.64C110.148 131.267 110.508 131.08 110.908 131.08ZM103.908 108.92C103.508 108.92 103.055 109.427 102.548 110.44C102.068 111.427 101.602 112.813 101.148 114.6C100.722 116.36 100.362 118.32 100.068 120.48C101.642 119.12 102.815 117.6 103.588 115.92C104.388 114.213 104.788 112.667 104.788 111.28C104.788 109.707 104.495 108.92 103.908 108.92ZM126.612 131.08C126.958 131.08 127.225 131.24 127.412 131.56C127.625 131.88 127.732 132.32 127.732 132.88C127.732 133.947 127.478 134.773 126.972 135.36C125.985 136.56 124.585 137.667 122.772 138.68C120.985 139.693 119.065 140.2 117.012 140.2C114.212 140.2 112.038 139.44 110.492 137.92C108.945 136.4 108.172 134.32 108.172 131.68C108.172 129.84 108.558 128.133 109.332 126.56C110.105 124.96 111.172 123.693 112.532 122.76C113.918 121.827 115.478 121.36 117.212 121.36C118.758 121.36 119.998 121.827 120.932 122.76C121.865 123.667 122.332 124.907 122.332 126.48C122.332 128.32 121.665 129.907 120.332 131.24C119.025 132.547 116.798 133.587 113.652 134.36C114.318 135.587 115.585 136.2 117.452 136.2C118.652 136.2 120.012 135.787 121.532 134.96C123.078 134.107 124.412 133 125.532 131.64C125.852 131.267 126.212 131.08 126.612 131.08ZM116.532 125.28C115.545 125.28 114.705 125.853 114.012 127C113.345 128.147 113.012 129.533 113.012 131.16V131.24C114.585 130.867 115.825 130.307 116.732 129.56C117.638 128.813 118.092 127.947 118.092 126.96C118.092 126.453 117.945 126.053 117.652 125.76C117.385 125.44 117.012 125.28 116.532 125.28ZM135.635 140.32C132.088 140.32 129.248 139.653 127.115 138.32C124.981 136.96 123.915 134.893 123.915 132.12C123.915 130.653 124.168 129.533 124.675 128.76C125.181 127.987 125.928 127.6 126.915 127.6C127.635 127.6 128.221 127.787 128.675 128.16C129.128 128.533 129.355 129.013 129.355 129.6C129.355 130.133 129.315 130.6 129.235 131C129.235 131.107 129.208 131.293 129.155 131.56C129.128 131.827 129.115 132.107 129.115 132.4C129.115 133.6 129.715 134.493 130.915 135.08C132.141 135.667 133.848 135.96 136.035 135.96C138.301 135.96 140.075 135.56 141.355 134.76C142.635 133.933 143.275 132.787 143.275 131.32C143.275 130.413 142.981 129.64 142.395 129C141.808 128.333 141.075 127.787 140.195 127.36C139.315 126.907 138.075 126.36 136.475 125.72C134.421 124.92 132.741 124.16 131.435 123.44C130.155 122.72 129.048 121.747 128.115 120.52C127.208 119.267 126.755 117.72 126.755 115.88C126.755 113.96 127.261 112.253 128.275 110.76C129.315 109.267 130.795 108.107 132.715 107.28C134.661 106.453 136.941 106.04 139.555 106.04C141.501 106.04 143.288 106.333 144.915 106.92C146.541 107.48 147.835 108.347 148.795 109.52C149.781 110.693 150.275 112.133 150.275 113.84C150.275 115.52 150.021 116.787 149.515 117.64C149.008 118.493 148.261 118.92 147.275 118.92C146.581 118.92 145.995 118.707 145.515 118.28C145.061 117.853 144.835 117.347 144.835 116.76C144.835 116.253 144.875 115.787 144.955 115.36C145.035 114.56 145.075 114.053 145.075 113.84C145.075 112.72 144.528 111.867 143.435 111.28C142.341 110.693 140.981 110.4 139.355 110.4C137.061 110.4 135.301 110.827 134.075 111.68C132.875 112.507 132.275 113.68 132.275 115.2C132.275 116.213 132.581 117.08 133.195 117.8C133.835 118.52 134.621 119.12 135.555 119.6C136.488 120.08 137.795 120.653 139.475 121.32C141.501 122.147 143.128 122.893 144.355 123.56C145.581 124.227 146.621 125.133 147.475 126.28C148.355 127.427 148.795 128.84 148.795 130.52C148.795 133.667 147.595 136.093 145.195 137.8C142.821 139.48 139.635 140.32 135.635 140.32ZM174.018 131.08C174.365 131.08 174.632 131.24 174.818 131.56C175.032 131.88 175.138 132.32 175.138 132.88C175.138 133.947 174.885 134.773 174.378 135.36C173.152 136.773 171.885 137.933 170.578 138.84C169.298 139.747 167.832 140.2 166.178 140.2C164.818 140.2 163.792 139.813 163.098 139.04C162.405 138.24 162.058 137.093 162.058 135.6C162.058 134.853 162.245 133.52 162.618 131.6C162.965 129.92 163.138 128.76 163.138 128.12C163.138 127.693 162.992 127.48 162.698 127.48C162.352 127.48 161.858 127.933 161.218 128.84C160.578 129.72 159.938 130.893 159.298 132.36C158.658 133.827 158.138 135.373 157.738 137C157.232 139.133 155.978 140.2 153.978 140.2C153.178 140.2 152.645 139.92 152.378 139.36C152.138 138.773 152.018 137.733 152.018 136.24C152.018 135.387 152.032 134.707 152.058 134.2L152.098 131C152.098 126.893 152.512 122.613 153.338 118.16C154.192 113.707 155.432 109.973 157.058 106.96C158.712 103.92 160.685 102.4 162.978 102.4C164.205 102.4 165.192 102.933 165.938 104C166.712 105.04 167.098 106.4 167.098 108.08C167.098 110.773 166.312 113.573 164.738 116.48C163.165 119.36 160.605 122.733 157.058 126.6C156.978 127.987 156.938 129.413 156.938 130.88C157.818 128.613 158.792 126.773 159.858 125.36C160.952 123.92 162.018 122.893 163.058 122.28C164.125 121.667 165.098 121.36 165.978 121.36C167.712 121.36 168.578 122.227 168.578 123.96C168.578 125 168.285 126.88 167.698 129.6C167.192 131.92 166.938 133.453 166.938 134.2C166.938 135.267 167.325 135.8 168.098 135.8C168.632 135.8 169.258 135.48 169.978 134.84C170.725 134.173 171.712 133.107 172.938 131.64C173.258 131.267 173.618 131.08 174.018 131.08ZM162.138 106.36C161.658 106.36 161.125 107.053 160.538 108.44C159.952 109.8 159.378 111.653 158.818 114C158.285 116.32 157.845 118.853 157.498 121.6C159.152 119.653 160.512 117.533 161.578 115.24C162.672 112.947 163.218 110.867 163.218 109C163.218 108.147 163.125 107.493 162.938 107.04C162.752 106.587 162.485 106.36 162.138 106.36ZM176.817 140.2C175.163 140.2 173.843 139.6 172.857 138.4C171.87 137.2 171.377 135.627 171.377 133.68C171.377 131.547 171.87 129.533 172.857 127.64C173.843 125.72 175.15 124.187 176.777 123.04C178.43 121.867 180.177 121.28 182.017 121.28C182.603 121.28 182.99 121.4 183.177 121.64C183.39 121.853 183.563 122.253 183.697 122.84C184.257 122.733 184.843 122.68 185.457 122.68C186.763 122.68 187.417 123.147 187.417 124.08C187.417 124.64 187.217 125.973 186.817 128.08C186.203 131.147 185.897 133.28 185.897 134.48C185.897 134.88 185.99 135.2 186.177 135.44C186.39 135.68 186.657 135.8 186.977 135.8C187.483 135.8 188.097 135.48 188.817 134.84C189.537 134.173 190.51 133.107 191.737 131.64C192.057 131.267 192.417 131.08 192.817 131.08C193.163 131.08 193.43 131.24 193.617 131.56C193.83 131.88 193.937 132.32 193.937 132.88C193.937 133.947 193.683 134.773 193.177 135.36C192.083 136.72 190.923 137.867 189.697 138.8C188.47 139.733 187.283 140.2 186.137 140.2C185.257 140.2 184.443 139.907 183.697 139.32C182.977 138.707 182.43 137.88 182.057 136.84C180.67 139.08 178.923 140.2 176.817 140.2ZM178.257 136.16C178.843 136.16 179.403 135.813 179.937 135.12C180.47 134.427 180.857 133.507 181.097 132.36L182.577 125C181.457 125.027 180.417 125.453 179.457 126.28C178.523 127.08 177.777 128.147 177.217 129.48C176.657 130.813 176.377 132.227 176.377 133.72C176.377 134.547 176.537 135.16 176.857 135.56C177.203 135.96 177.67 136.16 178.257 136.16ZM193.526 140.2C192.512 140.2 191.792 139.667 191.366 138.6C190.966 137.533 190.766 135.827 190.766 133.48C190.766 130.013 191.259 126.72 192.246 123.6C192.486 122.827 192.872 122.267 193.406 121.92C193.966 121.547 194.739 121.36 195.726 121.36C196.259 121.36 196.632 121.427 196.846 121.56C197.059 121.693 197.166 121.947 197.166 122.32C197.166 122.747 196.966 123.707 196.566 125.2C196.299 126.267 196.086 127.2 195.926 128C195.766 128.8 195.632 129.787 195.526 130.96C196.406 128.667 197.392 126.8 198.486 125.36C199.579 123.92 200.646 122.893 201.686 122.28C202.752 121.667 203.726 121.36 204.606 121.36C206.339 121.36 207.206 122.227 207.206 123.96C207.206 124.307 207.086 125.147 206.846 126.48C206.632 127.547 206.526 128.213 206.526 128.48C206.526 129.413 206.859 129.88 207.526 129.88C208.272 129.88 209.232 129.293 210.406 128.12C210.752 127.773 211.112 127.6 211.486 127.6C211.832 127.6 212.099 127.76 212.286 128.08C212.499 128.373 212.606 128.773 212.606 129.28C212.606 130.267 212.339 131.04 211.806 131.6C211.059 132.373 210.179 133.04 209.166 133.6C208.179 134.133 207.126 134.4 206.006 134.4C204.592 134.4 203.512 134.04 202.766 133.32C202.046 132.6 201.686 131.627 201.686 130.4C201.686 130 201.726 129.6 201.806 129.2C201.859 128.667 201.886 128.307 201.886 128.12C201.886 127.693 201.739 127.48 201.446 127.48C201.046 127.48 200.512 127.933 199.846 128.84C199.206 129.72 198.566 130.893 197.926 132.36C197.286 133.827 196.766 135.373 196.366 137C196.072 138.253 195.726 139.107 195.326 139.56C194.952 139.987 194.352 140.2 193.526 140.2ZM223.209 132.28C223.555 132.28 223.822 132.44 224.009 132.76C224.222 133.08 224.329 133.52 224.329 134.08C224.329 135.04 224.102 135.867 223.649 136.56C222.902 137.707 221.915 138.6 220.689 139.24C219.489 139.88 218.049 140.2 216.369 140.2C213.809 140.2 211.822 139.44 210.409 137.92C208.995 136.373 208.289 134.293 208.289 131.68C208.289 129.84 208.675 128.133 209.449 126.56C210.222 124.96 211.289 123.693 212.649 122.76C214.035 121.827 215.595 121.36 217.329 121.36C218.875 121.36 220.115 121.827 221.049 122.76C221.982 123.667 222.449 124.907 222.449 126.48C222.449 128.32 221.782 129.907 220.449 131.24C219.142 132.547 216.902 133.587 213.729 134.36C214.369 135.587 215.449 136.2 216.969 136.2C218.062 136.2 218.955 135.947 219.649 135.44C220.369 134.933 221.195 134.08 222.129 132.88C222.449 132.48 222.809 132.28 223.209 132.28ZM216.649 125.28C215.662 125.28 214.822 125.853 214.129 127C213.462 128.147 213.129 129.533 213.129 131.16V131.24C214.702 130.867 215.942 130.307 216.849 129.56C217.755 128.813 218.209 127.947 218.209 126.96C218.209 126.453 218.062 126.053 217.769 125.76C217.502 125.44 217.129 125.28 216.649 125.28Z" fill="white"/>
</svg>
