<svg width="250" height="250" viewBox="0 0 250 250" fill="none" xmlns="http://www.w3.org/2000/svg">
<rect width="250" height="250" rx="20" fill="#242C26"/>
<path fill-rule="evenodd" clip-rule="evenodd" d="M31.2502 61.1719C35.1676 66.7478 38.0599 67.0992 43.8731 65.1183C48.1752 73.4074 51.2552 73.5595 57.51 68.7018C65.9011 70.4124 69.9468 70.0994 68.6464 60.8262C78.5062 58.1462 80.1194 55.1005 75.6572 46.7678C79.4522 42.6455 80.3899 39.9635 78.3006 34.0073L198.734 34.0073C210.296 34.0073 219.669 43.3805 219.669 54.9428V214.989C219.669 220.926 201.779 205.923 198.07 201.287L184.084 188.413C180.111 183.447 174.096 180.556 167.736 180.556H52.1854C40.6228 180.556 31.25 171.183 31.25 159.62V54.9428C31.25 54.9116 31.2501 54.8805 31.2502 54.8494L31.2502 61.1719Z" fill="#14902A"/>
<path d="M43.8731 65.1183L45.2045 64.4273L44.6102 63.2824L43.3893 63.6985L43.8731 65.1183ZM31.2502 61.1719H29.7502V61.6461L30.0228 62.0342L31.2502 61.1719ZM57.51 68.7018L57.8096 67.232L57.1342 67.0943L56.5899 67.5171L57.51 68.7018ZM68.6464 60.8262L68.253 59.3787L66.9774 59.7254L67.161 61.0345L68.6464 60.8262ZM75.6572 46.7678L74.5536 45.7518L73.8316 46.5361L74.3348 47.4759L75.6572 46.7678ZM78.3006 34.0073V32.5073L76.1848 32.5073L76.8852 34.5038L78.3006 34.0073ZM198.734 34.0073V35.5073V34.0073ZM198.07 201.287L199.241 200.35L199.17 200.26L199.086 200.183L198.07 201.287ZM184.084 188.413L182.913 189.35L182.984 189.439L183.068 189.516L184.084 188.413ZM31.2502 54.8494H32.7502L29.7502 54.8428L31.2502 54.8494ZM43.3893 63.6985C40.5175 64.6771 38.7207 64.9404 37.2512 64.5333C35.8175 64.1362 34.3703 63.0035 32.4776 60.3096L30.0228 62.0342C32.0476 64.9161 34.0052 66.7471 36.4503 67.4244C38.8595 68.0918 41.4155 67.5405 44.3569 66.5381L43.3893 63.6985ZM56.5899 67.5171C55.0599 68.7054 53.8104 69.5172 52.7454 69.9821C51.6975 70.4395 50.9255 70.519 50.2864 70.3762C49.6425 70.2323 48.9155 69.8139 48.0553 68.856C47.1866 67.8887 46.2556 66.4526 45.2045 64.4273L42.5417 65.8093C43.6416 67.9285 44.709 69.6198 45.8232 70.8605C46.9459 72.1107 48.1865 72.9809 49.6322 73.304C51.0827 73.6281 52.5223 73.3529 53.9456 72.7316C55.3516 72.1179 56.8327 71.1271 58.43 69.8865L56.5899 67.5171ZM67.161 61.0345C67.4753 63.2761 67.4389 64.8118 67.1799 65.8447C66.9374 66.8122 66.5197 67.2826 66.0004 67.5627C65.4014 67.8858 64.4703 68.0601 63.0375 67.9983C61.6226 67.9374 59.8926 67.6567 57.8096 67.232L57.2103 70.1716C59.3229 70.6022 61.2452 70.9239 62.9083 70.9956C64.5534 71.0665 66.1258 70.9037 67.4245 70.2032C68.803 69.4597 69.6774 68.22 70.0899 66.5742C70.4861 64.9937 70.4677 63.0129 70.1319 60.6179L67.161 61.0345ZM74.3348 47.4759C75.4251 49.5119 76.0854 51.1206 76.3643 52.4181C76.6377 53.6905 76.5245 54.5644 76.1832 55.2414C75.8318 55.9384 75.1308 56.6411 73.8163 57.3508C72.4975 58.0628 70.6764 58.72 68.253 59.3787L69.0399 62.2736C71.5464 61.5923 73.6243 60.8638 75.2416 59.9906C76.8632 59.1151 78.1354 58.0331 78.8619 56.592C79.5986 55.131 79.6682 53.5137 79.2973 51.7877C78.9317 50.0868 78.1203 48.19 76.9795 46.0597L74.3348 47.4759ZM76.8852 34.5038C77.8911 37.3716 78.0781 39.2106 77.7243 40.7364C77.3674 42.2754 76.4068 43.7389 74.5536 45.7518L76.7607 47.7837C78.7026 45.6744 80.1083 43.7358 80.6467 41.4141C81.1882 39.0793 80.7994 36.5993 79.7161 33.5108L76.8852 34.5038ZM198.734 32.5073L78.3006 32.5073V35.5073L198.734 35.5073V32.5073ZM221.169 54.9428C221.169 42.552 211.124 32.5073 198.734 32.5073V35.5073C209.468 35.5073 218.169 44.2089 218.169 54.9428H221.169ZM221.169 214.989V54.9428H218.169V214.989H221.169ZM196.899 202.224C198.873 204.692 204.394 209.693 209.378 213.316C211.86 215.12 214.353 216.691 216.294 217.411C217.207 217.75 218.326 218.031 219.324 217.732C219.891 217.562 220.403 217.207 220.746 216.649C221.068 216.123 221.169 215.534 221.169 214.989H218.169C218.169 215.186 218.13 215.176 218.189 215.08C218.267 214.952 218.392 214.88 218.462 214.858C218.468 214.857 218.16 214.904 217.338 214.599C215.808 214.031 213.597 212.674 211.142 210.89C206.254 207.337 200.976 202.518 199.241 200.35L196.899 202.224ZM183.068 189.516L197.054 202.39L199.086 200.183L185.1 187.309L183.068 189.516ZM167.736 182.056C173.64 182.056 179.224 184.74 182.913 189.35L185.255 187.476C180.998 182.154 174.552 179.056 167.736 179.056V182.056ZM52.1854 182.056H167.736V179.056H52.1854V182.056ZM29.75 159.62C29.75 172.011 39.7944 182.056 52.1854 182.056V179.056C41.4512 179.056 32.75 170.354 32.75 159.62H29.75ZM29.75 54.9428V159.62H32.75V54.9428H29.75ZM29.7502 54.8428C29.7501 54.8761 29.75 54.9094 29.75 54.9428H32.75C32.75 54.9138 32.7501 54.8849 32.7502 54.8559L29.7502 54.8428ZM32.7502 61.1719V54.8494H29.7502V61.1719H32.7502Z" fill="white"/>
<path d="M69.72 102.4C69.72 104.667 68.92 106.627 67.32 108.28C65.72 109.907 63.3867 111.08 60.32 111.8C61.9733 112.253 63.2267 113 64.08 114.04C64.9333 115.053 65.36 116.227 65.36 117.56C65.36 119.667 64.6933 121.493 63.36 123.04C62.0533 124.587 60.1333 125.787 57.6 126.64C55.0667 127.467 52.0133 127.88 48.44 127.88C47.1067 127.88 46.04 127.84 45.24 127.76C45.2133 128.507 44.8933 129.067 44.28 129.44C43.6667 129.813 42.88 130 41.92 130C40.96 130 40.2933 129.787 39.92 129.36C39.5733 128.933 39.4267 128.307 39.48 127.48C39.72 123.747 40.1867 119.84 40.88 115.76C41.5733 111.653 42.4533 107.693 43.52 103.88C43.7067 103.213 44.08 102.747 44.64 102.48C45.2 102.213 45.9333 102.08 46.84 102.08C48.4667 102.08 49.28 102.533 49.28 103.44C49.28 103.813 49.2 104.24 49.04 104.72C48.3467 106.8 47.6533 109.627 46.96 113.2C46.2667 116.747 45.7733 120.133 45.48 123.36C46.76 123.467 47.8 123.52 48.6 123.52C52.3333 123.52 55.0667 122.987 56.8 121.92C58.56 120.827 59.44 119.44 59.44 117.76C59.44 116.587 58.9333 115.6 57.92 114.8C56.9333 114 55.2667 113.56 52.92 113.48C52.3867 113.453 52.0133 113.32 51.8 113.08C51.5867 112.84 51.48 112.453 51.48 111.92C51.48 111.147 51.64 110.52 51.96 110.04C52.28 109.56 52.8667 109.307 53.72 109.28C55.6133 109.227 57.32 108.947 58.84 108.44C60.3867 107.933 61.6 107.227 62.48 106.32C63.36 105.387 63.8 104.307 63.8 103.08C63.8 101.533 63.04 100.32 61.52 99.44C60 98.5333 57.6667 98.08 54.52 98.08C51.6667 98.08 48.9067 98.4533 46.24 99.2C43.5733 99.92 41.3067 100.84 39.44 101.96C38.5867 102.467 37.8667 102.72 37.28 102.72C36.8 102.72 36.4267 102.56 36.16 102.24C35.92 101.893 35.8 101.467 35.8 100.96C35.8 100.293 35.9333 99.72 36.2 99.24C36.4933 98.76 37.1733 98.2133 38.24 97.6C40.48 96.32 43.1067 95.32 46.12 94.6C49.1333 93.88 52.2133 93.52 55.36 93.52C60.1867 93.52 63.7867 94.3333 66.16 95.96C68.5333 97.5867 69.72 99.7333 69.72 102.4ZM74.4647 106.72C73.3447 106.72 72.5047 106.467 71.9447 105.96C71.3847 105.427 71.1047 104.693 71.1047 103.76C71.1047 102.827 71.4647 102.053 72.1847 101.44C72.9314 100.8 73.8514 100.48 74.9447 100.48C75.9314 100.48 76.7314 100.72 77.3447 101.2C77.958 101.68 78.2647 102.36 78.2647 103.24C78.2647 104.307 77.918 105.16 77.2247 105.8C76.5314 106.413 75.6114 106.72 74.4647 106.72ZM74.1447 128.2C72.4114 128.2 71.1447 127.587 70.3447 126.36C69.5714 125.133 69.1847 123.507 69.1847 121.48C69.1847 120.28 69.3314 118.747 69.6247 116.88C69.9447 114.987 70.3447 113.227 70.8247 111.6C71.0647 110.747 71.3847 110.16 71.7847 109.84C72.1847 109.52 72.8247 109.36 73.7047 109.36C75.0647 109.36 75.7447 109.813 75.7447 110.72C75.7447 111.387 75.4914 112.933 74.9847 115.36C74.3447 118.293 74.0247 120.28 74.0247 121.32C74.0247 122.12 74.1314 122.733 74.3447 123.16C74.558 123.587 74.918 123.8 75.4247 123.8C75.9047 123.8 76.5047 123.467 77.2247 122.8C77.9447 122.133 78.9047 121.08 80.1047 119.64C80.4247 119.267 80.7847 119.08 81.1847 119.08C81.5314 119.08 81.798 119.24 81.9847 119.56C82.198 119.88 82.3047 120.32 82.3047 120.88C82.3047 121.947 82.0514 122.773 81.5447 123.36C78.9047 126.587 76.438 128.2 74.1447 128.2ZM96.9084 119.08C97.2551 119.08 97.5218 119.24 97.7084 119.56C97.9218 119.88 98.0284 120.32 98.0284 120.88C98.0284 121.947 97.7751 122.773 97.2684 123.36C96.1218 124.773 94.8684 125.933 93.5084 126.84C92.1484 127.747 90.5884 128.2 88.8284 128.2C83.3884 128.2 80.6684 124.373 80.6684 116.72C80.6684 115.547 80.7084 114.36 80.7884 113.16H79.2284C78.4284 113.16 77.8818 113.013 77.5884 112.72C77.3218 112.427 77.1884 111.96 77.1884 111.32C77.1884 109.827 77.7884 109.08 78.9884 109.08H81.2684C81.7218 106.147 82.4151 103.467 83.3484 101.04C84.2818 98.6133 85.4018 96.68 86.7084 95.24C88.0418 93.8 89.4684 93.08 90.9884 93.08C92.1084 93.08 92.9884 93.5733 93.6284 94.56C94.2684 95.5467 94.5884 96.7867 94.5884 98.28C94.5884 102.413 92.8551 106.013 89.3884 109.08H93.8684C94.2951 109.08 94.6018 109.173 94.7884 109.36C94.9751 109.547 95.0684 109.893 95.0684 110.4C95.0684 112.24 93.5618 113.16 90.5484 113.16H85.6684C85.6151 114.493 85.5884 115.533 85.5884 116.28C85.5884 119.053 85.9084 121 86.5484 122.12C87.2151 123.24 88.2551 123.8 89.6684 123.8C90.8151 123.8 91.8284 123.453 92.7084 122.76C93.5884 122.067 94.6284 121.027 95.8284 119.64C96.1484 119.267 96.5084 119.08 96.9084 119.08ZM89.9084 96.92C89.5084 96.92 89.0551 97.4267 88.5484 98.44C88.0684 99.4267 87.6018 100.813 87.1484 102.6C86.7218 104.36 86.3618 106.32 86.0684 108.48C87.6418 107.12 88.8151 105.6 89.5884 103.92C90.3884 102.213 90.7884 100.667 90.7884 99.28C90.7884 97.7067 90.4951 96.92 89.9084 96.92ZM112.612 119.08C112.958 119.08 113.225 119.24 113.412 119.56C113.625 119.88 113.732 120.32 113.732 120.88C113.732 121.947 113.478 122.773 112.972 123.36C111.985 124.56 110.585 125.667 108.772 126.68C106.985 127.693 105.065 128.2 103.012 128.2C100.212 128.2 98.0382 127.44 96.4916 125.92C94.9449 124.4 94.1716 122.32 94.1716 119.68C94.1716 117.84 94.5582 116.133 95.3316 114.56C96.1049 112.96 97.1716 111.693 98.5316 110.76C99.9182 109.827 101.478 109.36 103.212 109.36C104.758 109.36 105.998 109.827 106.932 110.76C107.865 111.667 108.332 112.907 108.332 114.48C108.332 116.32 107.665 117.907 106.332 119.24C105.025 120.547 102.798 121.587 99.6516 122.36C100.318 123.587 101.585 124.2 103.452 124.2C104.652 124.2 106.012 123.787 107.532 122.96C109.078 122.107 110.412 121 111.532 119.64C111.852 119.267 112.212 119.08 112.612 119.08ZM102.532 113.28C101.545 113.28 100.705 113.853 100.012 115C99.3449 116.147 99.0116 117.533 99.0116 119.16V119.24C100.585 118.867 101.825 118.307 102.732 117.56C103.638 116.813 104.092 115.947 104.092 114.96C104.092 114.453 103.945 114.053 103.652 113.76C103.385 113.44 103.012 113.28 102.532 113.28ZM121.635 128.32C118.088 128.32 115.248 127.653 113.115 126.32C110.981 124.96 109.915 122.893 109.915 120.12C109.915 118.653 110.168 117.533 110.675 116.76C111.181 115.987 111.928 115.6 112.915 115.6C113.635 115.6 114.221 115.787 114.675 116.16C115.128 116.533 115.355 117.013 115.355 117.6C115.355 118.133 115.315 118.6 115.235 119C115.235 119.107 115.208 119.293 115.155 119.56C115.128 119.827 115.115 120.107 115.115 120.4C115.115 121.6 115.715 122.493 116.915 123.08C118.141 123.667 119.848 123.96 122.035 123.96C124.301 123.96 126.075 123.56 127.355 122.76C128.635 121.933 129.275 120.787 129.275 119.32C129.275 118.413 128.981 117.64 128.395 117C127.808 116.333 127.075 115.787 126.195 115.36C125.315 114.907 124.075 114.36 122.475 113.72C120.421 112.92 118.741 112.16 117.435 111.44C116.155 110.72 115.048 109.747 114.115 108.52C113.208 107.267 112.755 105.72 112.755 103.88C112.755 101.96 113.261 100.253 114.275 98.76C115.315 97.2667 116.795 96.1067 118.715 95.28C120.661 94.4533 122.941 94.04 125.555 94.04C127.501 94.04 129.288 94.3333 130.915 94.92C132.541 95.48 133.835 96.3467 134.795 97.52C135.781 98.6933 136.275 100.133 136.275 101.84C136.275 103.52 136.021 104.787 135.515 105.64C135.008 106.493 134.261 106.92 133.275 106.92C132.581 106.92 131.995 106.707 131.515 106.28C131.061 105.853 130.835 105.347 130.835 104.76C130.835 104.253 130.875 103.787 130.955 103.36C131.035 102.56 131.075 102.053 131.075 101.84C131.075 100.72 130.528 99.8667 129.435 99.28C128.341 98.6933 126.981 98.4 125.355 98.4C123.061 98.4 121.301 98.8267 120.075 99.68C118.875 100.507 118.275 101.68 118.275 103.2C118.275 104.213 118.581 105.08 119.195 105.8C119.835 106.52 120.621 107.12 121.555 107.6C122.488 108.08 123.795 108.653 125.475 109.32C127.501 110.147 129.128 110.893 130.355 111.56C131.581 112.227 132.621 113.133 133.475 114.28C134.355 115.427 134.795 116.84 134.795 118.52C134.795 121.667 133.595 124.093 131.195 125.8C128.821 127.48 125.635 128.32 121.635 128.32ZM160.018 119.08C160.365 119.08 160.632 119.24 160.818 119.56C161.032 119.88 161.138 120.32 161.138 120.88C161.138 121.947 160.885 122.773 160.378 123.36C159.152 124.773 157.885 125.933 156.578 126.84C155.298 127.747 153.832 128.2 152.178 128.2C150.818 128.2 149.792 127.813 149.098 127.04C148.405 126.24 148.058 125.093 148.058 123.6C148.058 122.853 148.245 121.52 148.618 119.6C148.965 117.92 149.138 116.76 149.138 116.12C149.138 115.693 148.992 115.48 148.698 115.48C148.352 115.48 147.858 115.933 147.218 116.84C146.578 117.72 145.938 118.893 145.298 120.36C144.658 121.827 144.138 123.373 143.738 125C143.232 127.133 141.978 128.2 139.978 128.2C139.178 128.2 138.645 127.92 138.378 127.36C138.138 126.773 138.018 125.733 138.018 124.24C138.018 123.387 138.032 122.707 138.058 122.2L138.098 119C138.098 114.893 138.512 110.613 139.338 106.16C140.192 101.707 141.432 97.9733 143.058 94.96C144.712 91.92 146.685 90.4 148.978 90.4C150.205 90.4 151.192 90.9333 151.938 92C152.712 93.04 153.098 94.4 153.098 96.08C153.098 98.7733 152.312 101.573 150.738 104.48C149.165 107.36 146.605 110.733 143.058 114.6C142.978 115.987 142.938 117.413 142.938 118.88C143.818 116.613 144.792 114.773 145.858 113.36C146.952 111.92 148.018 110.893 149.058 110.28C150.125 109.667 151.098 109.36 151.978 109.36C153.712 109.36 154.578 110.227 154.578 111.96C154.578 113 154.285 114.88 153.698 117.6C153.192 119.92 152.938 121.453 152.938 122.2C152.938 123.267 153.325 123.8 154.098 123.8C154.632 123.8 155.258 123.48 155.978 122.84C156.725 122.173 157.712 121.107 158.938 119.64C159.258 119.267 159.618 119.08 160.018 119.08ZM148.138 94.36C147.658 94.36 147.125 95.0533 146.538 96.44C145.952 97.8 145.378 99.6533 144.818 102C144.285 104.32 143.845 106.853 143.498 109.6C145.152 107.653 146.512 105.533 147.578 103.24C148.672 100.947 149.218 98.8667 149.218 97C149.218 96.1467 149.125 95.4933 148.938 95.04C148.752 94.5867 148.485 94.36 148.138 94.36ZM162.817 128.2C161.163 128.2 159.843 127.6 158.857 126.4C157.87 125.2 157.377 123.627 157.377 121.68C157.377 119.547 157.87 117.533 158.857 115.64C159.843 113.72 161.15 112.187 162.777 111.04C164.43 109.867 166.177 109.28 168.017 109.28C168.603 109.28 168.99 109.4 169.177 109.64C169.39 109.853 169.563 110.253 169.697 110.84C170.257 110.733 170.843 110.68 171.457 110.68C172.763 110.68 173.417 111.147 173.417 112.08C173.417 112.64 173.217 113.973 172.817 116.08C172.203 119.147 171.897 121.28 171.897 122.48C171.897 122.88 171.99 123.2 172.177 123.44C172.39 123.68 172.657 123.8 172.977 123.8C173.483 123.8 174.097 123.48 174.817 122.84C175.537 122.173 176.51 121.107 177.737 119.64C178.057 119.267 178.417 119.08 178.817 119.08C179.163 119.08 179.43 119.24 179.617 119.56C179.83 119.88 179.937 120.32 179.937 120.88C179.937 121.947 179.683 122.773 179.177 123.36C178.083 124.72 176.923 125.867 175.697 126.8C174.47 127.733 173.283 128.2 172.137 128.2C171.257 128.2 170.443 127.907 169.697 127.32C168.977 126.707 168.43 125.88 168.057 124.84C166.67 127.08 164.923 128.2 162.817 128.2ZM164.257 124.16C164.843 124.16 165.403 123.813 165.937 123.12C166.47 122.427 166.857 121.507 167.097 120.36L168.577 113C167.457 113.027 166.417 113.453 165.457 114.28C164.523 115.08 163.777 116.147 163.217 117.48C162.657 118.813 162.377 120.227 162.377 121.72C162.377 122.547 162.537 123.16 162.857 123.56C163.203 123.96 163.67 124.16 164.257 124.16ZM179.526 128.2C178.512 128.2 177.792 127.667 177.366 126.6C176.966 125.533 176.766 123.827 176.766 121.48C176.766 118.013 177.259 114.72 178.246 111.6C178.486 110.827 178.872 110.267 179.406 109.92C179.966 109.547 180.739 109.36 181.726 109.36C182.259 109.36 182.632 109.427 182.846 109.56C183.059 109.693 183.166 109.947 183.166 110.32C183.166 110.747 182.966 111.707 182.566 113.2C182.299 114.267 182.086 115.2 181.926 116C181.766 116.8 181.632 117.787 181.526 118.96C182.406 116.667 183.392 114.8 184.486 113.36C185.579 111.92 186.646 110.893 187.686 110.28C188.752 109.667 189.726 109.36 190.606 109.36C192.339 109.36 193.206 110.227 193.206 111.96C193.206 112.307 193.086 113.147 192.846 114.48C192.632 115.547 192.526 116.213 192.526 116.48C192.526 117.413 192.859 117.88 193.526 117.88C194.272 117.88 195.232 117.293 196.406 116.12C196.752 115.773 197.112 115.6 197.486 115.6C197.832 115.6 198.099 115.76 198.286 116.08C198.499 116.373 198.606 116.773 198.606 117.28C198.606 118.267 198.339 119.04 197.806 119.6C197.059 120.373 196.179 121.04 195.166 121.6C194.179 122.133 193.126 122.4 192.006 122.4C190.592 122.4 189.512 122.04 188.766 121.32C188.046 120.6 187.686 119.627 187.686 118.4C187.686 118 187.726 117.6 187.806 117.2C187.859 116.667 187.886 116.307 187.886 116.12C187.886 115.693 187.739 115.48 187.446 115.48C187.046 115.48 186.512 115.933 185.846 116.84C185.206 117.72 184.566 118.893 183.926 120.36C183.286 121.827 182.766 123.373 182.366 125C182.072 126.253 181.726 127.107 181.326 127.56C180.952 127.987 180.352 128.2 179.526 128.2ZM209.209 120.28C209.555 120.28 209.822 120.44 210.009 120.76C210.222 121.08 210.329 121.52 210.329 122.08C210.329 123.04 210.102 123.867 209.649 124.56C208.902 125.707 207.915 126.6 206.689 127.24C205.489 127.88 204.049 128.2 202.369 128.2C199.809 128.2 197.822 127.44 196.409 125.92C194.995 124.373 194.289 122.293 194.289 119.68C194.289 117.84 194.675 116.133 195.449 114.56C196.222 112.96 197.289 111.693 198.649 110.76C200.035 109.827 201.595 109.36 203.329 109.36C204.875 109.36 206.115 109.827 207.049 110.76C207.982 111.667 208.449 112.907 208.449 114.48C208.449 116.32 207.782 117.907 206.449 119.24C205.142 120.547 202.902 121.587 199.729 122.36C200.369 123.587 201.449 124.2 202.969 124.2C204.062 124.2 204.955 123.947 205.649 123.44C206.369 122.933 207.195 122.08 208.129 120.88C208.449 120.48 208.809 120.28 209.209 120.28ZM202.649 113.28C201.662 113.28 200.822 113.853 200.129 115C199.462 116.147 199.129 117.533 199.129 119.16V119.24C200.702 118.867 201.942 118.307 202.849 117.56C203.755 116.813 204.209 115.947 204.209 114.96C204.209 114.453 204.062 114.053 203.769 113.76C203.502 113.44 203.129 113.28 202.649 113.28Z" fill="white"/>
</svg>
